<mxfile host="app.diagrams.net" modified="2021-02-04T03:42:44.419Z" agent="5.0 (Macintosh; Intel Mac OS X 10_15_7) AppleWebKit/537.36 (KHTML, like Gecko) Chrome/88.0.4324.96 Safari/537.36" etag="LHobR8HIUeeOKIjt2jIs" version="14.2.7" type="github">
  <diagram id="C5RBs43oDa-KdzZeNtuy" name="Page-1">
    <mxGraphModel dx="1184" dy="693" grid="1" gridSize="10" guides="1" tooltips="1" connect="1" arrows="1" fold="1" page="1" pageScale="1" pageWidth="827" pageHeight="1169" math="0" shadow="0">
      <root>
        <mxCell id="WIyWlLk6GJQsqaUBKTNV-0" />
        <mxCell id="WIyWlLk6GJQsqaUBKTNV-1" parent="WIyWlLk6GJQsqaUBKTNV-0" />
        <mxCell id="H0thgkhad0gbrhlTef-n-0" value="&lt;font style=&quot;font-size: 14px&quot;&gt;cmdb&lt;/font&gt;" style="rounded=0;whiteSpace=wrap;html=1;" parent="WIyWlLk6GJQsqaUBKTNV-1" vertex="1">
          <mxGeometry x="148" y="60" width="130" height="60" as="geometry" />
        </mxCell>
        <mxCell id="H0thgkhad0gbrhlTef-n-1" value="&lt;span style=&quot;font-size: 14px&quot;&gt;MDC平台&lt;/span&gt;" style="rounded=0;whiteSpace=wrap;html=1;" parent="WIyWlLk6GJQsqaUBKTNV-1" vertex="1">
          <mxGeometry x="392.99" y="200" width="120" height="60" as="geometry" />
        </mxCell>
        <mxCell id="H0thgkhad0gbrhlTef-n-3" value="内存、重传、cpu、磁盘情况" style="shape=callout;whiteSpace=wrap;html=1;perimeter=calloutPerimeter;" parent="WIyWlLk6GJQsqaUBKTNV-1" vertex="1">
          <mxGeometry x="512.99" y="60" width="170" height="90" as="geometry" />
        </mxCell>
        <mxCell id="H0thgkhad0gbrhlTef-n-4" value="" style="endArrow=none;dashed=1;html=1;dashPattern=1 3;strokeWidth=2;" parent="WIyWlLk6GJQsqaUBKTNV-1" edge="1">
          <mxGeometry width="50" height="50" relative="1" as="geometry">
            <mxPoint x="510" y="200" as="sourcePoint" />
            <mxPoint x="600" y="150" as="targetPoint" />
          </mxGeometry>
        </mxCell>
        <mxCell id="H0thgkhad0gbrhlTef-n-7" value="&lt;span style=&quot;font-size: 14px&quot;&gt;拉取cmdb中docker的ip&lt;/span&gt;" style="rounded=0;whiteSpace=wrap;html=1;" parent="WIyWlLk6GJQsqaUBKTNV-1" vertex="1">
          <mxGeometry x="150" y="200" width="140" height="60" as="geometry" />
        </mxCell>
        <mxCell id="H0thgkhad0gbrhlTef-n-20" value="" style="edgeStyle=orthogonalEdgeStyle;rounded=0;orthogonalLoop=1;jettySize=auto;html=1;" parent="WIyWlLk6GJQsqaUBKTNV-1" source="H0thgkhad0gbrhlTef-n-8" target="H0thgkhad0gbrhlTef-n-19" edge="1">
          <mxGeometry relative="1" as="geometry" />
        </mxCell>
        <mxCell id="H0thgkhad0gbrhlTef-n-8" value="&lt;span style=&quot;font-size: 14px&quot;&gt;ip对应的内存、重传、cpu、磁盘等信息存入redis&lt;/span&gt;" style="rounded=0;whiteSpace=wrap;html=1;" parent="WIyWlLk6GJQsqaUBKTNV-1" vertex="1">
          <mxGeometry x="290" y="350" width="170" height="60" as="geometry" />
        </mxCell>
        <mxCell id="H0thgkhad0gbrhlTef-n-9" value="" style="endArrow=classic;html=1;exitX=0.5;exitY=1;exitDx=0;exitDy=0;entryX=0.653;entryY=0.017;entryDx=0;entryDy=0;entryPerimeter=0;" parent="WIyWlLk6GJQsqaUBKTNV-1" source="H0thgkhad0gbrhlTef-n-1" edge="1">
          <mxGeometry width="50" height="50" relative="1" as="geometry">
            <mxPoint x="488.99" y="350" as="sourcePoint" />
            <mxPoint x="380" y="351.02" as="targetPoint" />
          </mxGeometry>
        </mxCell>
        <mxCell id="H0thgkhad0gbrhlTef-n-11" value="" style="endArrow=classic;html=1;exitX=0.5;exitY=1;exitDx=0;exitDy=0;entryX=0.25;entryY=0;entryDx=0;entryDy=0;" parent="WIyWlLk6GJQsqaUBKTNV-1" target="H0thgkhad0gbrhlTef-n-8" edge="1">
          <mxGeometry width="50" height="50" relative="1" as="geometry">
            <mxPoint x="234" y="260" as="sourcePoint" />
            <mxPoint x="190" y="340" as="targetPoint" />
          </mxGeometry>
        </mxCell>
        <mxCell id="H0thgkhad0gbrhlTef-n-12" value="" style="endArrow=classic;html=1;exitX=0.5;exitY=1;exitDx=0;exitDy=0;entryX=0.443;entryY=-0.017;entryDx=0;entryDy=0;entryPerimeter=0;" parent="WIyWlLk6GJQsqaUBKTNV-1" source="H0thgkhad0gbrhlTef-n-0" target="H0thgkhad0gbrhlTef-n-7" edge="1">
          <mxGeometry width="50" height="50" relative="1" as="geometry">
            <mxPoint x="222.99" y="120" as="sourcePoint" />
            <mxPoint x="190" y="190" as="targetPoint" />
          </mxGeometry>
        </mxCell>
        <mxCell id="H0thgkhad0gbrhlTef-n-13" value="定时任务拉取最新的ip" style="edgeLabel;html=1;align=center;verticalAlign=middle;resizable=0;points=[];" parent="H0thgkhad0gbrhlTef-n-12" vertex="1" connectable="0">
          <mxGeometry x="-0.2148" y="-1" relative="1" as="geometry">
            <mxPoint as="offset" />
          </mxGeometry>
        </mxCell>
        <mxCell id="H0thgkhad0gbrhlTef-n-16" value="" style="endArrow=classic;html=1;" parent="WIyWlLk6GJQsqaUBKTNV-1" edge="1">
          <mxGeometry width="50" height="50" relative="1" as="geometry">
            <mxPoint x="730" y="100" as="sourcePoint" />
            <mxPoint x="730" y="400" as="targetPoint" />
          </mxGeometry>
        </mxCell>
        <mxCell id="H0thgkhad0gbrhlTef-n-17" value="docker.php类" style="edgeLabel;html=1;align=center;verticalAlign=middle;resizable=0;points=[];" parent="H0thgkhad0gbrhlTef-n-16" vertex="1" connectable="0">
          <mxGeometry x="-0.26" relative="1" as="geometry">
            <mxPoint as="offset" />
          </mxGeometry>
        </mxCell>
        <mxCell id="H0thgkhad0gbrhlTef-n-19" value="&lt;span style=&quot;font-size: 14px&quot;&gt;线程run方法消费redis数据&lt;/span&gt;" style="rounded=0;whiteSpace=wrap;html=1;" parent="WIyWlLk6GJQsqaUBKTNV-1" vertex="1">
          <mxGeometry x="290" y="480" width="170" height="60" as="geometry" />
        </mxCell>
        <mxCell id="H0thgkhad0gbrhlTef-n-21" value="" style="endArrow=classic;html=1;" parent="WIyWlLk6GJQsqaUBKTNV-1" edge="1">
          <mxGeometry width="50" height="50" relative="1" as="geometry">
            <mxPoint x="730" y="410" as="sourcePoint" />
            <mxPoint x="730" y="570" as="targetPoint" />
          </mxGeometry>
        </mxCell>
        <mxCell id="H0thgkhad0gbrhlTef-n-22" value="net_monitor.php类" style="edgeLabel;html=1;align=center;verticalAlign=middle;resizable=0;points=[];" parent="H0thgkhad0gbrhlTef-n-21" vertex="1" connectable="0">
          <mxGeometry x="-0.26" relative="1" as="geometry">
            <mxPoint as="offset" />
          </mxGeometry>
        </mxCell>
        <mxCell id="H0thgkhad0gbrhlTef-n-23" value="&lt;span style=&quot;font-size: 14px&quot;&gt;写入重传率数据&lt;/span&gt;" style="rounded=0;whiteSpace=wrap;html=1;" parent="WIyWlLk6GJQsqaUBKTNV-1" vertex="1">
          <mxGeometry x="50" y="640" width="170" height="60" as="geometry" />
        </mxCell>
        <mxCell id="H0thgkhad0gbrhlTef-n-38" value="" style="edgeStyle=orthogonalEdgeStyle;rounded=0;orthogonalLoop=1;jettySize=auto;html=1;" parent="WIyWlLk6GJQsqaUBKTNV-1" source="H0thgkhad0gbrhlTef-n-24" target="H0thgkhad0gbrhlTef-n-37" edge="1">
          <mxGeometry relative="1" as="geometry" />
        </mxCell>
        <mxCell id="H0thgkhad0gbrhlTef-n-24" value="对top50的ip下发抓包命令" style="rounded=0;whiteSpace=wrap;html=1;" parent="WIyWlLk6GJQsqaUBKTNV-1" vertex="1">
          <mxGeometry x="450" y="770" width="170" height="60" as="geometry" />
        </mxCell>
        <mxCell id="H0thgkhad0gbrhlTef-n-34" value="" style="edgeStyle=orthogonalEdgeStyle;rounded=0;orthogonalLoop=1;jettySize=auto;html=1;" parent="WIyWlLk6GJQsqaUBKTNV-1" source="H0thgkhad0gbrhlTef-n-25" target="H0thgkhad0gbrhlTef-n-24" edge="1">
          <mxGeometry relative="1" as="geometry" />
        </mxCell>
        <mxCell id="H0thgkhad0gbrhlTef-n-25" value="&lt;span style=&quot;font-size: 14px&quot;&gt;写入重传数数据&lt;/span&gt;" style="rounded=0;whiteSpace=wrap;html=1;" parent="WIyWlLk6GJQsqaUBKTNV-1" vertex="1">
          <mxGeometry x="450" y="660" width="170" height="60" as="geometry" />
        </mxCell>
        <mxCell id="H0thgkhad0gbrhlTef-n-28" value="" style="endArrow=classic;html=1;exitX=0.25;exitY=1;exitDx=0;exitDy=0;" parent="WIyWlLk6GJQsqaUBKTNV-1" source="H0thgkhad0gbrhlTef-n-19" edge="1">
          <mxGeometry width="50" height="50" relative="1" as="geometry">
            <mxPoint x="150.01" y="500" as="sourcePoint" />
            <mxPoint x="140" y="630" as="targetPoint" />
          </mxGeometry>
        </mxCell>
        <mxCell id="H0thgkhad0gbrhlTef-n-29" value="写入jd_tcp_retrans_rate_yyyyMMdd表" style="edgeLabel;html=1;align=center;verticalAlign=middle;resizable=0;points=[];" parent="H0thgkhad0gbrhlTef-n-28" vertex="1" connectable="0">
          <mxGeometry x="0.3833" y="-2" relative="1" as="geometry">
            <mxPoint as="offset" />
          </mxGeometry>
        </mxCell>
        <mxCell id="H0thgkhad0gbrhlTef-n-31" value="" style="endArrow=classic;html=1;exitX=0.712;exitY=1.033;exitDx=0;exitDy=0;entryX=0.424;entryY=-0.083;entryDx=0;entryDy=0;entryPerimeter=0;exitPerimeter=0;" parent="WIyWlLk6GJQsqaUBKTNV-1" source="H0thgkhad0gbrhlTef-n-19" target="H0thgkhad0gbrhlTef-n-25" edge="1">
          <mxGeometry width="50" height="50" relative="1" as="geometry">
            <mxPoint x="300" y="550" as="sourcePoint" />
            <mxPoint x="150" y="640" as="targetPoint" />
          </mxGeometry>
        </mxCell>
        <mxCell id="H0thgkhad0gbrhlTef-n-32" value="写入jd_tcp_retrans_alarm_ops表" style="edgeLabel;html=1;align=center;verticalAlign=middle;resizable=0;points=[];" parent="H0thgkhad0gbrhlTef-n-31" vertex="1" connectable="0">
          <mxGeometry x="0.3833" y="-2" relative="1" as="geometry">
            <mxPoint x="16.74" as="offset" />
          </mxGeometry>
        </mxCell>
        <mxCell id="H0thgkhad0gbrhlTef-n-33" value="" style="endArrow=classic;html=1;" parent="WIyWlLk6GJQsqaUBKTNV-1" edge="1">
          <mxGeometry width="50" height="50" relative="1" as="geometry">
            <mxPoint x="70" y="540" as="sourcePoint" />
            <mxPoint x="70" y="610" as="targetPoint" />
          </mxGeometry>
        </mxCell>
        <mxCell id="H0thgkhad0gbrhlTef-n-35" value="" style="endArrow=classic;html=1;" parent="WIyWlLk6GJQsqaUBKTNV-1" edge="1">
          <mxGeometry width="50" height="50" relative="1" as="geometry">
            <mxPoint x="730" y="620" as="sourcePoint" />
            <mxPoint x="730" y="830" as="targetPoint" />
          </mxGeometry>
        </mxCell>
        <mxCell id="H0thgkhad0gbrhlTef-n-36" value="tmp_alarm_cron.php类" style="edgeLabel;html=1;align=center;verticalAlign=middle;resizable=0;points=[];" parent="H0thgkhad0gbrhlTef-n-35" vertex="1" connectable="0">
          <mxGeometry x="-0.26" relative="1" as="geometry">
            <mxPoint y="-9" as="offset" />
          </mxGeometry>
        </mxCell>
        <mxCell id="H0thgkhad0gbrhlTef-n-40" value="" style="edgeStyle=orthogonalEdgeStyle;rounded=0;orthogonalLoop=1;jettySize=auto;html=1;" parent="WIyWlLk6GJQsqaUBKTNV-1" source="H0thgkhad0gbrhlTef-n-37" target="H0thgkhad0gbrhlTef-n-39" edge="1">
          <mxGeometry relative="1" as="geometry" />
        </mxCell>
        <mxCell id="H0thgkhad0gbrhlTef-n-37" value="获取四元组&lt;br&gt;（原ip:port,目的ip, port）" style="rounded=0;whiteSpace=wrap;html=1;" parent="WIyWlLk6GJQsqaUBKTNV-1" vertex="1">
          <mxGeometry x="450" y="890" width="170" height="60" as="geometry" />
        </mxCell>
        <mxCell id="H0thgkhad0gbrhlTef-n-42" value="" style="edgeStyle=orthogonalEdgeStyle;rounded=0;orthogonalLoop=1;jettySize=auto;html=1;" parent="WIyWlLk6GJQsqaUBKTNV-1" source="H0thgkhad0gbrhlTef-n-39" target="H0thgkhad0gbrhlTef-n-41" edge="1">
          <mxGeometry relative="1" as="geometry" />
        </mxCell>
        <mxCell id="H0thgkhad0gbrhlTef-n-39" value="数据发送到tr.md.jd.com" style="rounded=0;whiteSpace=wrap;html=1;" parent="WIyWlLk6GJQsqaUBKTNV-1" vertex="1">
          <mxGeometry x="450" y="990" width="170" height="60" as="geometry" />
        </mxCell>
        <mxCell id="H0thgkhad0gbrhlTef-n-46" value="" style="edgeStyle=orthogonalEdgeStyle;rounded=0;orthogonalLoop=1;jettySize=auto;html=1;" parent="WIyWlLk6GJQsqaUBKTNV-1" source="H0thgkhad0gbrhlTef-n-41" target="H0thgkhad0gbrhlTef-n-45" edge="1">
          <mxGeometry relative="1" as="geometry" />
        </mxCell>
        <mxCell id="H0thgkhad0gbrhlTef-n-47" value="写入DB" style="edgeLabel;html=1;align=center;verticalAlign=middle;resizable=0;points=[];" parent="H0thgkhad0gbrhlTef-n-46" vertex="1" connectable="0">
          <mxGeometry x="-0.201" y="-1" relative="1" as="geometry">
            <mxPoint as="offset" />
          </mxGeometry>
        </mxCell>
        <mxCell id="H0thgkhad0gbrhlTef-n-41" value="Consumer" style="rounded=0;whiteSpace=wrap;html=1;" parent="WIyWlLk6GJQsqaUBKTNV-1" vertex="1">
          <mxGeometry x="450" y="1090" width="170" height="60" as="geometry" />
        </mxCell>
        <mxCell id="H0thgkhad0gbrhlTef-n-43" value="" style="endArrow=classic;html=1;" parent="WIyWlLk6GJQsqaUBKTNV-1" edge="1">
          <mxGeometry width="50" height="50" relative="1" as="geometry">
            <mxPoint x="720" y="1080" as="sourcePoint" />
            <mxPoint x="720" y="1260" as="targetPoint" />
          </mxGeometry>
        </mxCell>
        <mxCell id="H0thgkhad0gbrhlTef-n-44" value="go语言" style="edgeLabel;html=1;align=center;verticalAlign=middle;resizable=0;points=[];" parent="H0thgkhad0gbrhlTef-n-43" vertex="1" connectable="0">
          <mxGeometry x="-0.26" relative="1" as="geometry">
            <mxPoint y="-9" as="offset" />
          </mxGeometry>
        </mxCell>
        <mxCell id="H0thgkhad0gbrhlTef-n-45" value="jd_tcp_retrans_data_yyyyMMdd" style="whiteSpace=wrap;html=1;rounded=0;" parent="WIyWlLk6GJQsqaUBKTNV-1" vertex="1">
          <mxGeometry x="443.75" y="1230" width="182.5" height="60" as="geometry" />
        </mxCell>
        <mxCell id="_96cW4utacDwdihTf6T_-0" value="&lt;span style=&quot;color: rgb(23 , 43 , 77) ; font-family: , , &amp;#34;segoe ui&amp;#34; , &amp;#34;roboto&amp;#34; , &amp;#34;oxygen&amp;#34; , &amp;#34;ubuntu&amp;#34; , &amp;#34;fira sans&amp;#34; , &amp;#34;droid sans&amp;#34; , &amp;#34;helvetica neue&amp;#34; , sans-serif ; font-size: 14px ; text-align: left ; background-color: rgb(255 , 255 , 255)&quot;&gt;network_failure&lt;br&gt;_data_info内网故障消费&lt;/span&gt;" style="rounded=0;whiteSpace=wrap;html=1;" vertex="1" parent="WIyWlLk6GJQsqaUBKTNV-1">
          <mxGeometry x="180" y="1410" width="210" height="60" as="geometry" />
        </mxCell>
        <mxCell id="_96cW4utacDwdihTf6T_-1" value="" style="endArrow=classic;html=1;" edge="1" parent="WIyWlLk6GJQsqaUBKTNV-1">
          <mxGeometry width="50" height="50" relative="1" as="geometry">
            <mxPoint x="730" y="1430" as="sourcePoint" />
            <mxPoint x="730" y="1820" as="targetPoint" />
          </mxGeometry>
        </mxCell>
        <mxCell id="_96cW4utacDwdihTf6T_-2" value="thor-service 项目中" style="edgeLabel;html=1;align=center;verticalAlign=middle;resizable=0;points=[];" vertex="1" connectable="0" parent="_96cW4utacDwdihTf6T_-1">
          <mxGeometry x="-0.26" relative="1" as="geometry">
            <mxPoint y="13" as="offset" />
          </mxGeometry>
        </mxCell>
        <mxCell id="_96cW4utacDwdihTf6T_-7" value="" style="edgeStyle=orthogonalEdgeStyle;rounded=0;orthogonalLoop=1;jettySize=auto;html=1;" edge="1" parent="WIyWlLk6GJQsqaUBKTNV-1" source="_96cW4utacDwdihTf6T_-3" target="_96cW4utacDwdihTf6T_-6">
          <mxGeometry relative="1" as="geometry" />
        </mxCell>
        <mxCell id="_96cW4utacDwdihTf6T_-10" value="计算ip或者ip段的范围" style="edgeLabel;html=1;align=center;verticalAlign=middle;resizable=0;points=[];" vertex="1" connectable="0" parent="_96cW4utacDwdihTf6T_-7">
          <mxGeometry x="0.1156" y="-4" relative="1" as="geometry">
            <mxPoint as="offset" />
          </mxGeometry>
        </mxCell>
        <mxCell id="_96cW4utacDwdihTf6T_-23" value="" style="edgeStyle=orthogonalEdgeStyle;rounded=0;orthogonalLoop=1;jettySize=auto;html=1;" edge="1" parent="WIyWlLk6GJQsqaUBKTNV-1" source="_96cW4utacDwdihTf6T_-3" target="_96cW4utacDwdihTf6T_-22">
          <mxGeometry relative="1" as="geometry" />
        </mxCell>
        <mxCell id="_96cW4utacDwdihTf6T_-3" value="&lt;span style=&quot;color: rgb(23 , 43 , 77) ; font-family: , , &amp;#34;segoe ui&amp;#34; , &amp;#34;roboto&amp;#34; , &amp;#34;oxygen&amp;#34; , &amp;#34;ubuntu&amp;#34; , &amp;#34;fira sans&amp;#34; , &amp;#34;droid sans&amp;#34; , &amp;#34;helvetica neue&amp;#34; , sans-serif ; font-size: 14px ; text-align: left ; background-color: rgb(255 , 255 , 255)&quot;&gt;network_failure_data_info&lt;/span&gt;" style="rounded=0;whiteSpace=wrap;html=1;" vertex="1" parent="WIyWlLk6GJQsqaUBKTNV-1">
          <mxGeometry x="180" y="1540" width="210" height="60" as="geometry" />
        </mxCell>
        <mxCell id="_96cW4utacDwdihTf6T_-4" value="" style="endArrow=classic;html=1;exitX=0.5;exitY=1;exitDx=0;exitDy=0;" edge="1" parent="WIyWlLk6GJQsqaUBKTNV-1" source="_96cW4utacDwdihTf6T_-0">
          <mxGeometry width="50" height="50" relative="1" as="geometry">
            <mxPoint x="228" y="1530" as="sourcePoint" />
            <mxPoint x="285" y="1536" as="targetPoint" />
          </mxGeometry>
        </mxCell>
        <mxCell id="_96cW4utacDwdihTf6T_-5" value="写入db" style="edgeLabel;html=1;align=center;verticalAlign=middle;resizable=0;points=[];" vertex="1" connectable="0" parent="_96cW4utacDwdihTf6T_-4">
          <mxGeometry x="-0.5152" y="-1" relative="1" as="geometry">
            <mxPoint x="1" y="14" as="offset" />
          </mxGeometry>
        </mxCell>
        <mxCell id="_96cW4utacDwdihTf6T_-9" value="" style="edgeStyle=orthogonalEdgeStyle;rounded=0;orthogonalLoop=1;jettySize=auto;html=1;" edge="1" parent="WIyWlLk6GJQsqaUBKTNV-1" source="_96cW4utacDwdihTf6T_-6" target="_96cW4utacDwdihTf6T_-8">
          <mxGeometry relative="1" as="geometry" />
        </mxCell>
        <mxCell id="_96cW4utacDwdihTf6T_-11" value="没有应用受影响" style="edgeLabel;html=1;align=center;verticalAlign=middle;resizable=0;points=[];" vertex="1" connectable="0" parent="_96cW4utacDwdihTf6T_-9">
          <mxGeometry x="-0.3486" y="1" relative="1" as="geometry">
            <mxPoint as="offset" />
          </mxGeometry>
        </mxCell>
        <mxCell id="_96cW4utacDwdihTf6T_-13" value="" style="edgeStyle=orthogonalEdgeStyle;rounded=0;orthogonalLoop=1;jettySize=auto;html=1;" edge="1" parent="WIyWlLk6GJQsqaUBKTNV-1" source="_96cW4utacDwdihTf6T_-6" target="_96cW4utacDwdihTf6T_-12">
          <mxGeometry relative="1" as="geometry" />
        </mxCell>
        <mxCell id="_96cW4utacDwdihTf6T_-14" value="有" style="edgeLabel;html=1;align=center;verticalAlign=middle;resizable=0;points=[];" vertex="1" connectable="0" parent="_96cW4utacDwdihTf6T_-13">
          <mxGeometry x="-0.2951" y="-1" relative="1" as="geometry">
            <mxPoint as="offset" />
          </mxGeometry>
        </mxCell>
        <mxCell id="_96cW4utacDwdihTf6T_-6" value="查找cmdb中指定部&lt;br&gt;门的受影响的应用" style="rhombus;whiteSpace=wrap;html=1;rounded=0;" vertex="1" parent="WIyWlLk6GJQsqaUBKTNV-1">
          <mxGeometry x="205" y="1673.5" width="160" height="96.5" as="geometry" />
        </mxCell>
        <mxCell id="_96cW4utacDwdihTf6T_-8" value="直接返回" style="whiteSpace=wrap;html=1;rounded=0;" vertex="1" parent="WIyWlLk6GJQsqaUBKTNV-1">
          <mxGeometry x="225" y="1868.25" width="120" height="60" as="geometry" />
        </mxCell>
        <mxCell id="_96cW4utacDwdihTf6T_-16" value="" style="edgeStyle=orthogonalEdgeStyle;rounded=0;orthogonalLoop=1;jettySize=auto;html=1;" edge="1" parent="WIyWlLk6GJQsqaUBKTNV-1" source="_96cW4utacDwdihTf6T_-12" target="_96cW4utacDwdihTf6T_-15">
          <mxGeometry relative="1" as="geometry" />
        </mxCell>
        <mxCell id="_96cW4utacDwdihTf6T_-12" value="设置告警标志&lt;span style=&quot;color: rgb(23 , 43 , 77) ; font-family: , , &amp;#34;segoe ui&amp;#34; , &amp;#34;roboto&amp;#34; , &amp;#34;oxygen&amp;#34; , &amp;#34;ubuntu&amp;#34; , &amp;#34;fira sans&amp;#34; , &amp;#34;droid sans&amp;#34; , &amp;#34;helvetica neue&amp;#34; , sans-serif ; font-size: 14px ; text-align: left ; background-color: rgb(255 , 255 , 255)&quot;&gt;owner_alarm为true&lt;/span&gt;" style="whiteSpace=wrap;html=1;rounded=0;" vertex="1" parent="WIyWlLk6GJQsqaUBKTNV-1">
          <mxGeometry x="490" y="1691.75" width="120" height="60" as="geometry" />
        </mxCell>
        <mxCell id="_96cW4utacDwdihTf6T_-18" value="" style="edgeStyle=orthogonalEdgeStyle;rounded=0;orthogonalLoop=1;jettySize=auto;html=1;" edge="1" parent="WIyWlLk6GJQsqaUBKTNV-1" source="_96cW4utacDwdihTf6T_-15" target="_96cW4utacDwdihTf6T_-17">
          <mxGeometry relative="1" as="geometry" />
        </mxCell>
        <mxCell id="_96cW4utacDwdihTf6T_-19" value="写入db" style="edgeLabel;html=1;align=center;verticalAlign=middle;resizable=0;points=[];" vertex="1" connectable="0" parent="_96cW4utacDwdihTf6T_-18">
          <mxGeometry x="0.28" y="2" relative="1" as="geometry">
            <mxPoint x="-2" y="-12" as="offset" />
          </mxGeometry>
        </mxCell>
        <mxCell id="_96cW4utacDwdihTf6T_-15" value="查找受影响&lt;br&gt;应用的具体信息" style="whiteSpace=wrap;html=1;rounded=0;" vertex="1" parent="WIyWlLk6GJQsqaUBKTNV-1">
          <mxGeometry x="490" y="1800" width="120" height="60" as="geometry" />
        </mxCell>
        <mxCell id="_96cW4utacDwdihTf6T_-21" value="" style="edgeStyle=orthogonalEdgeStyle;rounded=0;orthogonalLoop=1;jettySize=auto;html=1;" edge="1" parent="WIyWlLk6GJQsqaUBKTNV-1" source="_96cW4utacDwdihTf6T_-17" target="_96cW4utacDwdihTf6T_-20">
          <mxGeometry relative="1" as="geometry" />
        </mxCell>
        <mxCell id="_96cW4utacDwdihTf6T_-29" value="" style="edgeStyle=orthogonalEdgeStyle;rounded=0;orthogonalLoop=1;jettySize=auto;html=1;" edge="1" parent="WIyWlLk6GJQsqaUBKTNV-1" source="_96cW4utacDwdihTf6T_-17" target="_96cW4utacDwdihTf6T_-28">
          <mxGeometry relative="1" as="geometry" />
        </mxCell>
        <mxCell id="_96cW4utacDwdihTf6T_-17" value="&lt;span style=&quot;color: rgb(23 , 43 , 77) ; font-family: , , &amp;#34;segoe ui&amp;#34; , &amp;#34;roboto&amp;#34; , &amp;#34;oxygen&amp;#34; , &amp;#34;ubuntu&amp;#34; , &amp;#34;fira sans&amp;#34; , &amp;#34;droid sans&amp;#34; , &amp;#34;helvetica neue&amp;#34; , sans-serif ; font-size: 14px ; text-align: left ; background-color: rgb(255 , 255 , 255)&quot;&gt;network_failure_&lt;br&gt;effect_app_info&lt;/span&gt;" style="whiteSpace=wrap;html=1;rounded=0;" vertex="1" parent="WIyWlLk6GJQsqaUBKTNV-1">
          <mxGeometry x="490" y="1910" width="120" height="60" as="geometry" />
        </mxCell>
        <mxCell id="_96cW4utacDwdihTf6T_-20" value="此表用于查看告警详情，详情页调用的接口在雷神php项目new-thor-api的&lt;br&gt;TmpNetWorkFailureAlarmController&amp;nbsp;" style="shape=document;whiteSpace=wrap;html=1;boundedLbl=1;rounded=0;" vertex="1" parent="WIyWlLk6GJQsqaUBKTNV-1">
          <mxGeometry x="700" y="1868.25" width="200" height="145" as="geometry" />
        </mxCell>
        <mxCell id="_96cW4utacDwdihTf6T_-22" value="此表用于保存&lt;br&gt;内网故障数据" style="shape=document;whiteSpace=wrap;html=1;boundedLbl=1;rounded=0;" vertex="1" parent="WIyWlLk6GJQsqaUBKTNV-1">
          <mxGeometry x="40" y="1530" width="100" height="80" as="geometry" />
        </mxCell>
        <mxCell id="_96cW4utacDwdihTf6T_-28" value="发出告警" style="whiteSpace=wrap;html=1;rounded=0;" vertex="1" parent="WIyWlLk6GJQsqaUBKTNV-1">
          <mxGeometry x="490" y="2000" width="120" height="50" as="geometry" />
        </mxCell>
      </root>
    </mxGraphModel>
  </diagram>
</mxfile>
